<svg xmlns="http://www.w3.org/2000/svg" viewBox="0 0 512 512">
  <rect width="512" height="512" rx="112" fill="#0b0b0f"/>
  <rect x="120" y="150" width="272" height="150" rx="18" fill="#ff5a1f"/>
  <g fill="#0b0b0f">
    <rect x="150" y="180" width="10" height="90"/>
    <rect x="168" y="180" width="6" height="90"/>
    <rect x="182" y="180" width="12" height="90"/>
    <rect x="202" y="180" width="6" height="90"/>
    <rect x="214" y="180" width="10" height="90"/>
    <rect x="232" y="180" width="6" height="90"/>
    <rect x="244" y="180" width="14" height="90"/>
    <rect x="266" y="180" width="6" height="90"/>
    <rect x="280" y="180" width="10" height="90"/>
    <rect x="298" y="180" width="8" height="90"/>
    <rect x="314" y="180" width="12" height="90"/>
    <rect x="334" y="180" width="6" height="90"/>
    <rect x="348" y="180" width="10" height="90"/>
  </g>
  <text x="256" y="380" font-family="-apple-system, Helvetica, Arial, sans-serif" font-size="72" font-weight="800" fill="#f3f3f5" text-anchor="middle">$?</text>
</svg>
